<svg width="60" height="60" viewBox="0 0 60 60" fill="none" xmlns="http://www.w3.org/2000/svg">
<path d="M30 0C46.5685 0 60 13.4315 60 30C60 46.5685 46.5685 60 30 60C13.4315 60 0 46.5685 0 30C0 13.4315 13.4315 0 30 0ZM22.0029 21.3066C20.6052 21.3066 19.4031 21.6587 18.3975 22.3633C17.3975 23.0678 16.6277 24.0908 16.0879 25.4316C15.5538 26.7669 15.284 28.3866 15.2783 30.29C15.2783 32.1931 15.5452 33.8207 16.0791 35.1729C16.6189 36.5194 17.3896 37.5507 18.3896 38.2666C19.3953 38.9768 20.5996 39.332 22.0029 39.332C23.4063 39.332 24.6084 38.9768 25.6084 38.2666C26.6138 37.5564 27.384 36.528 27.918 35.1816C28.4576 33.8295 28.7275 32.1989 28.7275 30.29C28.7275 28.3923 28.4577 26.7726 27.918 25.4316C27.3839 24.0908 26.614 23.0678 25.6084 22.3633C24.6027 21.6588 23.4006 21.3067 22.0029 21.3066ZM33.6133 21.5459V29.8291H31.0479V32.4287H33.6133V33.7246H31.0479V36.3242H33.6133V39H36.7666V36.3242H40.5928V33.7246H36.7666V32.4287H40.1924C41.5276 32.4287 42.6641 32.2016 43.6016 31.7471C44.539 31.2869 45.2547 30.6534 45.749 29.8467C46.2433 29.0342 46.4912 28.0936 46.4912 27.0254C46.4912 25.9971 46.2464 25.0709 45.7578 24.2471C45.2749 23.4176 44.5644 22.7613 43.627 22.2783C42.6895 21.7897 41.5446 21.5459 40.1924 21.5459H33.6133ZM22.0029 23.9404C22.7245 23.9404 23.3495 24.1821 23.8779 24.665C24.4063 25.1423 24.8157 25.8528 25.1055 26.7959C25.3951 27.739 25.54 28.9039 25.54 30.29C25.54 32.3864 25.2213 33.9742 24.585 35.0537C23.9543 36.1275 23.0938 36.665 22.0029 36.665C21.2757 36.665 20.6475 36.4264 20.1191 35.9492C19.5907 35.4663 19.1814 34.7496 18.8916 33.8008C18.6076 32.8521 18.4689 31.6817 18.4746 30.29C18.4803 28.2105 18.798 26.6334 19.4287 25.5596C20.0594 24.48 20.9177 23.9404 22.0029 23.9404ZM40.1924 24.1709C40.9026 24.1709 41.488 24.298 41.9482 24.5537C42.4141 24.8037 42.761 25.1475 42.9883 25.585C43.2212 26.0167 43.3347 26.5055 43.3291 27.0508C43.3348 27.6076 43.2212 28.094 42.9883 28.5088C42.761 28.9235 42.4079 29.2475 41.9307 29.4805C41.4591 29.7133 40.8567 29.8291 40.124 29.8291H36.7666V24.1709H40.1924Z" fill="white"/>
</svg>
