<svg width="181" height="170" viewBox="0 0 181 170" fill="none" xmlns="http://www.w3.org/2000/svg">
<rect x="87" y="90" width="9" height="53" rx="4.5" fill="#00173C"/>
<circle cx="90.5" cy="61.5" r="31" stroke="#00173C" stroke-width="9"/>
<path d="M73.8818 61C71.738 61 69.9601 59.2442 70.3951 57.145C71.1416 53.5429 72.9246 50.2054 75.565 47.565C78.2054 44.9246 81.5429 43.1416 85.145 42.3951C87.2442 41.9601 89 43.738 89 45.8818V45.8818C89 48.0257 87.212 49.7016 85.1948 50.4276C83.6527 50.9827 82.2358 51.8737 81.0547 53.0547C79.8737 54.2358 78.9827 55.6527 78.4276 57.1948C77.7016 59.212 76.0257 61 73.8818 61V61Z" fill="#00173C"/>
</svg>
