<svg width="181" height="170" viewBox="0 0 181 170" fill="none" xmlns="http://www.w3.org/2000/svg">
<rect x="15.5" y="156.535" width="150" height="11" rx="5.5" fill="#00173C" stroke="#00173C"/>
<rect x="138" y="55.0349" width="12" height="107" rx="6" fill="#00173C"/>
<rect x="31.5" y="55.5349" width="11" height="106" rx="5.5" fill="#00173C" stroke="#00173C"/>
<rect x="122.5" y="61.5349" width="27" height="11" rx="5.5" fill="#00173C" stroke="#00173C"/>
<rect x="73.5" y="61.5349" width="34" height="11" rx="5.5" fill="#00173C" stroke="#00173C"/>
<rect x="73.5" y="85.5349" width="34" height="11" rx="5.5" fill="#00173C" stroke="#00173C"/>
<rect x="73.5" y="109.535" width="34" height="11" rx="5.5" fill="#00173C" stroke="#00173C"/>
<rect x="73.5" y="133.535" width="34" height="11" rx="5.5" fill="#00173C" stroke="#00173C"/>
<rect x="32.5" y="61.5349" width="27" height="11" rx="5.5" fill="#00173C" stroke="#00173C"/>
<rect x="103.5" y="40.5349" width="11" height="121" rx="5.5" fill="#00173C" stroke="#00173C"/>
<rect x="67.5" y="40.5349" width="11" height="121" rx="5.5" fill="#00173C" stroke="#00173C"/>
<path d="M144 65C144 45.75 139.879 32 127 21" stroke="#00173C" stroke-width="12" stroke-linecap="round"/>
<path d="M37 65C37 35.444 58.6505 -0.118597 105 9.64962" stroke="#00173C" stroke-width="12" stroke-linecap="round"/>
</svg>
