<svg width="32" height="33" viewBox="0 0 32 33" fill="none" xmlns="http://www.w3.org/2000/svg">
<rect x="0.5" y="0.5" width="31" height="31" rx="15.5" stroke="#00173C"/>
<path d="M24.7153 24.2887C24.8258 23.1022 24.6857 21.9058 24.304 20.777C23.9222 19.6482 23.3074 18.6123 22.4994 17.7364C21.6914 16.8606 20.7083 16.1645 19.6139 15.6932C18.5194 15.2219 17.3381 14.9859 16.1466 15.0007C14.9551 15.0155 13.78 15.2806 12.6976 15.7789C11.6152 16.2771 10.6496 16.9974 9.86358 17.893C9.07754 18.7886 8.48858 19.8394 8.13493 20.9773C7.78127 22.1152 7.67082 23.3148 7.81074 24.4982L8.97199 24.3608C8.85131 23.3403 8.94657 22.3057 9.25157 21.3244C9.55658 20.343 10.0645 19.4367 10.7424 18.6644C11.4203 17.892 12.2531 17.2708 13.1866 16.841C14.1201 16.4113 15.1335 16.1827 16.1611 16.1699C17.1887 16.1572 18.2075 16.3607 19.1514 16.7671C20.0953 17.1736 20.9431 17.774 21.64 18.5293C22.3368 19.2847 22.867 20.1781 23.1963 21.1516C23.5255 22.1251 23.6463 23.157 23.551 24.1802L24.7153 24.2887Z" fill="#00173C"/>
<circle cx="16.2521" cy="10.5" r="4" stroke="#00173C"/>
</svg>
